# xmcd
#
# Track frame offsets:
#	150
#	40732
#	89502
#	138037
#	151357
#	196177
#	213502
#	222797
#	236752
#	245402
#	255237
#	269077
#	284210
#	298700
#
# Disc length: 4130
#
# Revision: 1
# Processed by: cddbd v1.5.1PL0 Copyright (c) Steve Scherf et al.
# Submitted via: CDex 1.50Beta7
# Normalized: r0:DSETVAR1,TDELIM( - )
#
DISCID=d710200e
DTITLE=Various Artist - The History Of Jazz
DYEAR=2004
DGENRE=Jazz
TTITLE0=John Coltrane - Bule Train
TTITLE1=Miles Davis - So What
TTITLE2=Chet Baker - Stella By Starlight
TTITLE3=Duke Ellington - Take The "A" Train
TTITLE4=Charlie Parker - Liza
TTITLE5=Quincy Jones - Don't Bug Me
TTITLE6=Tony Bennett - Chicago
TTITLE7=Ella Fitzgerald and Louis Armstrong - Dream A Little Dream Of Me
TTITLE8=Ray Charles - Hit The Road Jack
TTITLE9=Charlie Barnett - Caravan
TTITLE10=Billies Holiday - Carelessly
TTITLE11=Woody Herman - Blue Flame
TTITLE12=Sarah Vaughan - I've Got The World On A String
TTITLE13=Dinah Washington - What a Difference Day Makes
EXTD=YEAR: 2004
EXTT0=
EXTT1=
EXTT2=
EXTT3=
EXTT4=
EXTT5=
EXTT6=
EXTT7=
EXTT8=
EXTT9=
EXTT10=
EXTT11=
EXTT12=
EXTT13=
PLAYORDER=
